<svg xmlns="http://www.w3.org/2000/svg" version="1.1" xmlns:xlink="http://www.w3.org/1999/xlink" xmlns:svgjs="http://svgjs.dev/svgjs" width="2000" height="631" viewBox="0 0 2000 631"><g transform="matrix(1,0,0,1,-1.2121212121212466,-1.2351784736791274)"><svg viewBox="0 0 396 125" data-background-color="#ffffff" preserveAspectRatio="xMidYMid meet" height="631" width="2000" xmlns="http://www.w3.org/2000/svg" xmlns:xlink="http://www.w3.org/1999/xlink"><defs></defs><g id="tight-bounds" transform="matrix(1,0,0,1,0.2400000000000091,0.24469660621727485)"><svg viewBox="0 0 395.52 124.51077084127502" height="124.51077084127502" width="395.52"><g><svg viewBox="0 0 624.0013693681601 196.43732682554813" height="124.51077084127502" width="395.52"><g transform="matrix(1,0,0,1,228.48136936816013,71.07143748331744)"><svg viewBox="0 0 395.52 54.29445185891325" height="54.29445185891325" width="395.52"><g><svg viewBox="0 0 395.52 54.29445185891325" height="54.29445185891325" width="395.52"><g><svg viewBox="0 0 395.52 54.29445185891325" height="54.29445185891325" width="395.52"><g transform="matrix(1,0,0,1,0,0)"><svg width="395.52" viewBox="4.400000095367432 -35.5 262.2300109863281 36" height="54.29445185891325" data-palette-color="#bb84e8"><path d="M6.45-35.05L6.45-35.05Q6.9-35.05 7.43-34.8 7.95-34.55 8.25-34.15L8.25-34.15 21.5-14.1 19.75-14.15 33.15-34.15Q33.8-35.1 34.85-35.05L34.85-35.05Q35.65-35 36.25-34.45 36.85-33.9 36.85-33L36.85-33 36.85-2.05Q36.85-1.2 36.25-0.6 35.65 0 34.75 0L34.75 0Q33.85 0 33.25-0.6 32.65-1.2 32.65-2.05L32.65-2.05 32.65-29.2 33.9-28.95 22.1-11Q21.8-10.65 21.38-10.4 20.95-10.15 20.5-10.15L20.5-10.15Q20.05-10.15 19.6-10.4 19.15-10.65 18.85-11L18.85-11 7.2-28.95 8.25-30.25 8.25-2.05Q8.25-1.2 7.7-0.6 7.15 0 6.3 0L6.3 0Q5.45 0 4.93-0.6 4.4-1.2 4.4-2.05L4.4-2.05 4.4-33Q4.4-33.8 4.98-34.43 5.55-35.05 6.45-35.05ZM77.15-17.5L77.15-17.5Q77.15-13.65 75.9-10.38 74.65-7.1 72.4-4.65 70.15-2.2 67.05-0.85 63.95 0.5 60.3 0.5L60.3 0.5Q56.6 0.5 53.52-0.85 50.45-2.2 48.2-4.65 45.95-7.1 44.7-10.38 43.45-13.65 43.45-17.5L43.45-17.5Q43.45-21.4 44.7-24.68 45.95-27.95 48.2-30.38 50.45-32.8 53.52-34.15 56.6-35.5 60.3-35.5L60.3-35.5Q63.95-35.5 67.05-34.15 70.15-32.8 72.4-30.38 74.65-27.95 75.9-24.68 77.15-21.4 77.15-17.5ZM72.85-17.5L72.85-17.5Q72.85-21.6 71.22-24.75 69.6-27.9 66.8-29.7 64-31.5 60.3-31.5L60.3-31.5Q56.6-31.5 53.77-29.7 50.95-27.9 49.35-24.75 47.75-21.6 47.75-17.5L47.75-17.5Q47.75-13.45 49.35-10.28 50.95-7.1 53.77-5.3 56.6-3.5 60.3-3.5L60.3-3.5Q64-3.5 66.8-5.3 69.6-7.1 71.22-10.28 72.85-13.45 72.85-17.5ZM108.65-35.05L108.65-35.05Q109.5-35.05 110.1-34.52 110.7-34 110.7-33.15L110.7-33.15Q110.7-32.75 110.5-32.25L110.5-32.25 97.45-1.3Q97.15-0.65 96.62-0.33 96.1 0 95.5 0L95.5 0Q94.95-0.05 94.45-0.38 93.95-0.7 93.7-1.3L93.7-1.3 80.7-32.2Q80.6-32.4 80.55-32.63 80.5-32.85 80.5-33.1L80.5-33.1Q80.5-34.05 81.17-34.58 81.85-35.1 82.5-35.1L82.5-35.1Q83.85-35.1 84.45-33.7L84.45-33.7 96.4-5.2 95.25-5.2 106.8-33.8Q107.4-35.05 108.65-35.05ZM120.84-32.95L120.84-2.05Q120.84-1.2 120.22-0.6 119.59 0 118.74 0L118.74 0Q117.79 0 117.24-0.6 116.69-1.2 116.69-2.05L116.69-2.05 116.69-32.95Q116.69-33.85 117.29-34.43 117.89-35 118.79-35L118.79-35Q119.64-35 120.24-34.43 120.84-33.85 120.84-32.95L120.84-32.95ZM131.64-35L131.64-35 149.44-35Q150.29-35 150.89-34.45 151.49-33.9 151.49-33.05L151.49-33.05Q151.49-32.2 150.89-31.68 150.29-31.15 149.44-31.15L149.44-31.15 133.34-31.15 133.79-32 133.79-19.35 133.29-19.9 147.19-19.9Q148.04-19.9 148.64-19.35 149.24-18.8 149.24-17.95L149.24-17.95Q149.24-17.1 148.64-16.57 148.04-16.05 147.19-16.05L147.19-16.05 133.44-16.05 133.79-16.5 133.79-3.55 133.49-3.9 149.44-3.9Q150.29-3.9 150.89-3.3 151.49-2.7 151.49-1.95L151.49-1.95Q151.49-1.1 150.89-0.55 150.29 0 149.44 0L149.44 0 131.64 0Q130.79 0 130.22-0.6 129.64-1.2 129.64-2.05L129.64-2.05 129.64-33Q129.64-33.85 130.22-34.43 130.79-35 131.64-35ZM168.34 0.5L168.34 0.5Q164.64 0.5 161.84-0.6 159.04-1.7 156.44-4.1L156.44-4.1Q156.09-4.45 155.86-4.88 155.64-5.3 155.64-5.8L155.64-5.8Q155.64-6.6 156.21-7.23 156.79-7.85 157.64-7.85L157.64-7.85Q158.34-7.85 158.89-7.3L158.89-7.3Q160.84-5.4 163.11-4.4 165.39-3.4 168.24-3.4L168.24-3.4Q170.44-3.4 172.21-4.1 173.99-4.8 175.04-6.05 176.09-7.3 176.09-8.95L176.09-8.95Q176.04-10.95 174.91-12.25 173.79-13.55 171.81-14.43 169.84-15.3 167.24-15.9L167.24-15.9Q164.94-16.45 163.01-17.25 161.09-18.05 159.69-19.23 158.29-20.4 157.51-22.08 156.74-23.75 156.74-26L156.74-26Q156.74-28.85 158.24-31 159.74-33.15 162.39-34.33 165.04-35.5 168.49-35.5L168.49-35.5Q171.54-35.5 174.26-34.5 176.99-33.5 178.64-31.75L178.64-31.75Q179.64-30.8 179.64-29.9L179.64-29.9Q179.64-29.15 179.01-28.53 178.39-27.9 177.59-27.9L177.59-27.9Q177.04-27.9 176.59-28.3L176.59-28.3Q175.74-29.25 174.44-30 173.14-30.75 171.59-31.2 170.04-31.65 168.49-31.65L168.49-31.65Q166.19-31.65 164.44-30.98 162.69-30.3 161.71-29.08 160.74-27.85 160.74-26.15L160.74-26.15Q160.74-24.25 161.84-23.03 162.94-21.8 164.79-21.03 166.64-20.25 168.89-19.65L168.89-19.65Q171.34-19.05 173.41-18.28 175.49-17.5 176.99-16.35 178.49-15.2 179.31-13.43 180.14-11.65 180.14-9.05L180.14-9.05Q180.14-6.3 178.59-4.15 177.04-2 174.36-0.78 171.69 0.45 168.34 0.5ZM203.73-3.95L219.88-3.95Q220.73-3.95 221.33-3.38 221.93-2.8 221.93-1.95L221.93-1.95Q221.93-1.1 221.33-0.55 220.73 0 219.88 0L219.88 0 202.58 0Q201.73 0 201.16-0.6 200.58-1.2 200.58-2.05L200.58-2.05 200.58-33Q200.58-33.85 201.18-34.43 201.78-35 202.68-35L202.68-35Q203.53-35 204.13-34.43 204.73-33.85 204.73-33L204.73-33 204.73-3.05 203.73-3.95ZM231.83-32.95L231.83-2.05Q231.83-1.2 231.21-0.6 230.58 0 229.73 0L229.73 0Q228.78 0 228.23-0.6 227.68-1.2 227.68-2.05L227.68-2.05 227.68-32.95Q227.68-33.85 228.28-34.43 228.88-35 229.78-35L229.78-35Q230.63-35 231.23-34.43 231.83-33.85 231.83-32.95L231.83-32.95ZM242.63-35L255.68-35Q260.08-35 262.45-32.73 264.83-30.45 264.83-26.3L264.83-26.3Q264.83-24.1 263.83-22.25 262.83-20.4 260.9-19.3 258.98-18.2 256.18-18.1L256.18-18.1 256.08-19.5Q257.83-19.5 259.68-19 261.53-18.5 263.1-17.4 264.68-16.3 265.65-14.5 266.63-12.7 266.63-10.05L266.63-10.05Q266.63-7.2 265.68-5.28 264.73-3.35 263.15-2.18 261.58-1 259.65-0.5 257.73 0 255.78 0L255.78 0 242.63 0Q241.78 0 241.2-0.6 240.63-1.2 240.63-2.05L240.63-2.05 240.63-33Q240.63-33.85 241.2-34.43 241.78-35 242.63-35L242.63-35ZM255.08-31.05L255.08-31.05 244.33-31.05 244.93-31.95 244.93-19.5 244.38-20.15 255.18-20.15Q257.38-20.15 258.95-21.58 260.53-23 260.53-25.8L260.53-25.8Q260.53-28.3 259.08-29.68 257.63-31.05 255.08-31.05ZM255.48-16.15L255.48-16.15 244.58-16.15 244.93-16.5 244.93-3.45 244.53-3.9 255.63-3.9Q258.58-3.9 260.45-5.4 262.33-6.9 262.33-10.05L262.33-10.05Q262.33-12.5 261.33-13.83 260.33-15.15 258.75-15.65 257.18-16.15 255.48-16.15Z" opacity="1" transform="matrix(1,0,0,1,0,0)" fill="#ffffff" class="undefined-text-0" data-fill-palette-color="primary" id="text-0"></path></svg></g></svg></g></svg></g></svg></g><g><svg viewBox="0 0 196.43732682554813 196.43732682554813" height="196.43732682554813" width="196.43732682554813"><g><svg viewBox="0 0 196.43732682554813 196.43732682554813" height="196.43732682554813" width="196.43732682554813"><g transform="matrix(1,0,0,1,51.91794145393967,51.91794145393967)"><svg viewBox="0 0 92.60144391766879 92.60144391766879" height="92.60144391766879" width="92.60144391766879"><g><svg xmlns="http://www.w3.org/2000/svg" xmlns:xlink="http://www.w3.org/1999/xlink" version="1.1" x="0" y="0" viewBox="0 0 100 100" style="enable-background:new 0 0 100 100;" xml:space="preserve" height="92.60144391766879" width="92.60144391766879" class="icon-x-0" data-fill-palette-color="accent" id="x-0"><path d="M87.427 25H75.086L87.5 12.549 75.232 0H57.837l12.464 12.451L57.531 25H42.773l12.684-12.451L42.92 0H25.244l12.451 12.451L24.927 25H12.402l12.695-12.451L12.549 0H0v100h100V0H87.744L100 12.5 87.427 25zM87.5 87.365h-75v-12.5h75V87.365zM87.5 62.5h-75V50h75V62.5z" fill="#ffffff" data-fill-palette-color="accent"></path></svg></g></svg></g><path d="M2.972 70.796v0c0.044-0.125 0.127-0.251 0.25-0.377 0.12-0.12 0.251-0.203 0.394-0.251v0l10.411-2.599-0.281 0.735-6.431-8.616c-0.205-0.277-0.246-0.559-0.124-0.846v0c0.092-0.221 0.246-0.388 0.462-0.502 0.21-0.116 0.443-0.129 0.7-0.038v0l13.024 4.596c0.238 0.084 0.412 0.24 0.521 0.469 0.109 0.229 0.12 0.468 0.031 0.719v0c-0.088 0.25-0.247 0.43-0.475 0.54-0.229 0.109-0.462 0.122-0.7 0.038v0l-11.427-4.033 0.288-0.49 5.806 7.635c0.069 0.123 0.117 0.256 0.144 0.4 0.027 0.143 0.018 0.277-0.026 0.402v0c-0.044 0.125-0.123 0.238-0.235 0.339-0.113 0.101-0.235 0.177-0.367 0.23v0l-9.288 2.234-0.389-0.633 11.869 4.188c0.238 0.084 0.414 0.234 0.527 0.451 0.116 0.21 0.131 0.437 0.045 0.681v0c-0.084 0.238-0.236 0.399-0.456 0.483-0.222 0.091-0.452 0.094-0.69 0.01v0l-13.024-4.597c-0.225-0.08-0.397-0.232-0.514-0.456-0.118-0.225-0.133-0.462-0.045-0.712zM32.978 34.896v0c0.886 0.731 1.587 1.55 2.103 2.457 0.516 0.908 0.843 1.852 0.98 2.834 0.132 0.978 0.06 1.951-0.214 2.921-0.28 0.965-0.766 1.868-1.459 2.708v0c-0.701 0.85-1.495 1.499-2.38 1.948-0.895 0.449-1.835 0.702-2.821 0.759-0.99 0.053-1.98-0.088-2.969-0.422-0.989-0.334-1.927-0.866-2.813-1.597v0c-0.891-0.735-1.595-1.556-2.111-2.464-0.516-0.908-0.84-1.85-0.972-2.828-0.132-0.978-0.06-1.947 0.216-2.907 0.266-0.959 0.75-1.864 1.451-2.714v0c0.693-0.84 1.489-1.487 2.388-1.941 0.894-0.458 1.834-0.716 2.819-0.773 0.985-0.057 1.972 0.082 2.961 0.415 0.989 0.334 1.93 0.869 2.821 1.604zM31.755 36.378v0c-0.937-0.773-1.924-1.272-2.959-1.498-1.03-0.222-2.017-0.183-2.96 0.115-0.942 0.307-1.763 0.886-2.464 1.736v0c-0.701 0.85-1.113 1.767-1.236 2.75-0.122 0.993 0.027 1.971 0.445 2.936 0.427 0.963 1.11 1.831 2.047 2.604v0c0.932 0.769 1.912 1.271 2.939 1.507 1.036 0.235 2.028 0.197 2.974-0.116 0.947-0.303 1.771-0.88 2.472-1.73v0c0.701-0.85 1.11-1.769 1.228-2.756 0.118-0.978-0.035-1.956-0.459-2.934-0.419-0.974-1.094-1.845-2.027-2.614zM50.939 11.982v0c0.214-0.134 0.437-0.184 0.67-0.149 0.236 0.04 0.422 0.167 0.555 0.38v0c0.063 0.101 0.109 0.23 0.136 0.385v0l2.403 14.805c0.023 0.212-0.005 0.399-0.085 0.558-0.082 0.169-0.199 0.301-0.351 0.397v0c-0.142 0.073-0.304 0.108-0.486 0.105-0.173-0.001-0.338-0.058-0.495-0.172v0l-12.248-8.612c-0.06-0.033-0.113-0.074-0.16-0.123-0.046-0.049-0.089-0.105-0.128-0.166v0c-0.152-0.242-0.184-0.48-0.096-0.716 0.084-0.241 0.211-0.414 0.38-0.52v0c0.338-0.212 0.693-0.188 1.067 0.072v0l11.28 7.949-0.439 0.275-2.408-13.556c-0.046-0.41 0.089-0.714 0.405-0.912zM70.298 4.946l4.28 13.11c0.078 0.24 0.057 0.474-0.064 0.702-0.121 0.228-0.302 0.381-0.541 0.46v0c-0.265 0.087-0.504 0.07-0.718-0.049-0.213-0.119-0.359-0.298-0.437-0.538v0l-4.28-13.11c-0.084-0.259-0.067-0.495 0.051-0.708 0.117-0.22 0.301-0.371 0.554-0.453v0c0.246-0.08 0.478-0.065 0.696 0.045 0.222 0.102 0.375 0.283 0.459 0.541zM89.803 0.512v0l7.93-0.51c0.252-0.016 0.472 0.053 0.662 0.207 0.189 0.147 0.292 0.347 0.308 0.599v0c0.016 0.252-0.06 0.463-0.229 0.633-0.169 0.164-0.379 0.254-0.631 0.27v0l-7.175 0.462 0.175-0.39 0.362 5.634-0.234-0.225 6.191-0.398c0.252-0.016 0.472 0.049 0.661 0.197 0.19 0.154 0.292 0.357 0.309 0.609v0c0.016 0.252-0.06 0.463-0.229 0.633-0.169 0.164-0.379 0.254-0.631 0.27v0l-6.121 0.394 0.136-0.208 0.371 5.773-0.139-0.15 7.105-0.457c0.252-0.016 0.473 0.059 0.663 0.226 0.19 0.167 0.293 0.364 0.307 0.589v0c0.016 0.252-0.06 0.463-0.228 0.634-0.168 0.177-0.378 0.274-0.63 0.29v0l-7.93 0.51c-0.252 0.016-0.469-0.06-0.653-0.228-0.184-0.168-0.284-0.378-0.3-0.629v0l-0.887-13.783c-0.017-0.258 0.056-0.476 0.218-0.652 0.161-0.183 0.368-0.283 0.619-0.3zM118.066 18.432v0c-1.074-0.248-1.982-0.624-2.724-1.129-0.735-0.503-1.401-1.192-1.997-2.065v0c-0.08-0.127-0.138-0.26-0.174-0.398-0.036-0.138-0.038-0.278-0.005-0.42v0c0.054-0.233 0.186-0.42 0.396-0.563 0.21-0.142 0.438-0.185 0.683-0.128v0c0.201 0.046 0.363 0.169 0.488 0.368v0c0.436 0.68 0.95 1.241 1.543 1.684 0.593 0.443 1.303 0.76 2.131 0.951v0c0.64 0.148 1.24 0.177 1.798 0.088 0.564-0.081 1.039-0.268 1.427-0.56 0.388-0.292 0.637-0.678 0.747-1.156v0c0.121-0.585 0.06-1.103-0.183-1.555-0.237-0.45-0.613-0.87-1.129-1.262-0.511-0.384-1.125-0.75-1.842-1.099v0c-0.63-0.309-1.197-0.644-1.699-1.005-0.503-0.361-0.918-0.76-1.247-1.197-0.328-0.437-0.55-0.924-0.664-1.461-0.115-0.537-0.096-1.133 0.054-1.786v0c0.189-0.822 0.576-1.495 1.161-2.021 0.577-0.521 1.289-0.864 2.138-1.03 0.849-0.165 1.771-0.133 2.767 0.097v0c0.886 0.204 1.69 0.543 2.413 1.016 0.722 0.473 1.264 1.02 1.624 1.642v0c0.228 0.339 0.312 0.641 0.251 0.906v0c-0.049 0.213-0.185 0.39-0.408 0.529-0.223 0.139-0.451 0.182-0.684 0.128v0c-0.155-0.036-0.287-0.128-0.396-0.275v0c-0.183-0.328-0.437-0.646-0.762-0.952-0.324-0.306-0.698-0.577-1.121-0.811-0.417-0.232-0.851-0.401-1.304-0.505v0c-0.666-0.154-1.274-0.192-1.823-0.114-0.557 0.083-1.015 0.267-1.374 0.552-0.367 0.29-0.607 0.684-0.722 1.183v0c-0.127 0.55-0.073 1.039 0.162 1.468 0.235 0.429 0.595 0.815 1.082 1.158 0.485 0.35 1.034 0.688 1.646 1.014v0c0.671 0.339 1.282 0.691 1.831 1.056 0.551 0.359 1.004 0.756 1.36 1.192 0.362 0.438 0.604 0.94 0.726 1.506 0.12 0.573 0.093 1.234-0.08 1.985v0c-0.185 0.802-0.575 1.461-1.171 1.978-0.59 0.518-1.313 0.865-2.172 1.042-0.858 0.177-1.774 0.16-2.747-0.051zM153.418 34.146l5.449 4.736c0.19 0.165 0.297 0.372 0.319 0.62 0.021 0.238-0.053 0.455-0.223 0.651v0c-0.165 0.19-0.366 0.289-0.6 0.296-0.244 0.008-0.461-0.071-0.652-0.236v0l-5.832-5.069c-0.19-0.165-0.292-0.372-0.305-0.621-0.013-0.248 0.064-0.468 0.229-0.659v0l9.061-10.424c0.17-0.195 0.377-0.297 0.621-0.304 0.248-0.013 0.473 0.068 0.673 0.242v0c0.195 0.17 0.302 0.377 0.319 0.62 0.026 0.243-0.045 0.462-0.216 0.657v0l-8.766 10.086zM180.296 44.684l-11.223 8.016c-0.205 0.147-0.435 0.196-0.688 0.15-0.254-0.047-0.454-0.173-0.601-0.379v0c-0.162-0.227-0.218-0.46-0.169-0.699 0.049-0.239 0.177-0.432 0.382-0.579v0l11.222-8.016c0.221-0.158 0.452-0.213 0.691-0.163 0.245 0.046 0.444 0.176 0.599 0.392v0c0.15 0.211 0.206 0.436 0.165 0.677-0.031 0.242-0.157 0.443-0.378 0.601zM190.388 62.06l2.047 5.453c0.459 1.224 0.497 2.288 0.112 3.191-0.387 0.897-1.158 1.562-2.314 1.996v0c-0.615 0.231-1.23 0.302-1.845 0.214-0.618-0.08-1.185-0.332-1.698-0.756-0.505-0.42-0.92-1.016-1.245-1.788v0l0.573-0.257c0.182 0.485 0.301 1.011 0.358 1.577 0.051 0.57 0.006 1.132-0.132 1.688-0.141 0.549-0.412 1.055-0.813 1.518-0.401 0.462-0.968 0.831-1.702 1.106v0c-0.796 0.299-1.514 0.416-2.155 0.351-0.632-0.06-1.193-0.251-1.681-0.571-0.493-0.311-0.912-0.711-1.258-1.197-0.337-0.483-0.609-0.998-0.814-1.546v0l-2.06-5.491c-0.089-0.236-0.079-0.467 0.027-0.691 0.107-0.225 0.279-0.381 0.515-0.47v0l12.931-4.852c0.242-0.091 0.472-0.085 0.688 0.019 0.222 0.101 0.378 0.27 0.466 0.506zM190.69 67.881v0l-1.686-4.494 0.467 0.112-5.202 1.952 0.183-0.334 1.697 4.521c0.229 0.609 0.625 1.06 1.187 1.352 0.561 0.286 1.233 0.282 2.017-0.012v0c0.696-0.261 1.158-0.665 1.385-1.211 0.234-0.549 0.218-1.177-0.048-1.886zM184.525 70.386v0l-1.71-4.559 0.205 0.093-5.454 2.046 0.123-0.237 1.743 4.642c0.308 0.82 0.768 1.414 1.38 1.78 0.612 0.366 1.36 0.383 2.242 0.052v0c0.677-0.254 1.15-0.591 1.418-1.011 0.262-0.417 0.382-0.87 0.362-1.359-0.029-0.493-0.132-0.975-0.309-1.447zM21.542 122.915v0c0.044 0.125 0.059 0.275 0.043 0.45-0.022 0.177-0.074 0.329-0.156 0.456v0l-6.553 8.67-0.235-0.752 10.548 2.698c0.333 0.086 0.547 0.282 0.64 0.587v0c0.067 0.23 0.053 0.457-0.044 0.681-0.094 0.231-0.27 0.391-0.526 0.482v0l-13.197 4.673c-0.238 0.084-0.475 0.07-0.713-0.043-0.229-0.109-0.389-0.292-0.48-0.548v0c-0.091-0.257-0.082-0.499 0.028-0.729 0.115-0.231 0.292-0.389 0.53-0.472v0l11.573-4.099 0.086 0.572-9.431-2.322c-0.131-0.052-0.255-0.124-0.373-0.217-0.113-0.101-0.192-0.214-0.236-0.339v0c-0.044-0.125-0.055-0.266-0.033-0.421 0.031-0.152 0.081-0.289 0.15-0.412v0l5.892-7.675 0.713 0.255-12.024 4.257c-0.238 0.084-0.472 0.079-0.703-0.015-0.224-0.097-0.38-0.267-0.466-0.511v0c-0.084-0.238-0.068-0.462 0.047-0.671 0.122-0.212 0.302-0.36 0.54-0.445v0l13.198-4.673c0.225-0.08 0.457-0.07 0.696 0.028 0.233 0.101 0.395 0.279 0.486 0.535zM36.19 163.04v0c-0.895 0.741-1.844 1.281-2.847 1.62-1.003 0.339-2.005 0.483-3.004 0.431-0.999-0.052-1.953-0.309-2.863-0.772-0.914-0.459-1.722-1.112-2.424-1.961v0c-0.711-0.859-1.202-1.775-1.474-2.749-0.281-0.974-0.353-1.957-0.217-2.948 0.136-0.991 0.464-1.948 0.985-2.87 0.521-0.922 1.228-1.754 2.123-2.495v0c0.905-0.749 1.859-1.293 2.863-1.633 0.998-0.335 1.997-0.477 2.996-0.424 0.994 0.056 1.944 0.313 2.848 0.77 0.9 0.453 1.706 1.108 2.417 1.968v0c0.703 0.849 1.196 1.763 1.481 2.742 0.285 0.979 0.362 1.962 0.232 2.95-0.136 0.991-0.462 1.946-0.977 2.864-0.521 0.922-1.234 1.758-2.139 2.507zM34.945 161.536v0c0.951-0.787 1.638-1.67 2.06-2.648 0.418-0.984 0.568-1.974 0.45-2.971-0.118-0.997-0.535-1.927-1.25-2.791v0c-0.711-0.859-1.547-1.442-2.509-1.75-0.961-0.307-1.962-0.345-3.002-0.113-1.04 0.232-2.036 0.742-2.987 1.529v0c-0.941 0.779-1.625 1.66-2.052 2.642-0.432 0.987-0.585 1.979-0.458 2.977 0.122 1.002 0.539 1.932 1.251 2.791v0c0.715 0.864 1.551 1.448 2.508 1.75 0.952 0.307 1.955 0.342 3.01 0.107 1.045-0.236 2.039-0.744 2.979-1.523zM61.618 171.695v0c0.22 0.137 0.363 0.321 0.431 0.55 0.073 0.234 0.043 0.457-0.09 0.672v0c-0.067 0.107-0.167 0.205-0.301 0.293v0l-12.41 8.761c-0.181 0.114-0.365 0.171-0.553 0.171-0.188 0-0.358-0.047-0.51-0.142v0c-0.134-0.099-0.236-0.23-0.307-0.391-0.077-0.165-0.102-0.345-0.075-0.539v0l2.408-14.963c0.007-0.074 0.022-0.143 0.046-0.206 0.024-0.063 0.055-0.126 0.094-0.188v0c0.151-0.242 0.356-0.376 0.614-0.403 0.253-0.03 0.464 0.008 0.634 0.114v0c0.344 0.214 0.481 0.546 0.412 0.996v0l-2.236 13.802-0.439-0.274 11.272-8.214c0.358-0.223 0.695-0.236 1.01-0.039zM75.981 178.417l-4.318 13.297c-0.078 0.24-0.234 0.42-0.468 0.539-0.232 0.113-0.471 0.13-0.717 0.049v0c-0.271-0.088-0.458-0.243-0.561-0.464-0.1-0.228-0.112-0.462-0.034-0.702v0l4.318-13.297c0.082-0.253 0.236-0.436 0.462-0.552 0.224-0.109 0.465-0.121 0.724-0.037v0c0.246 0.08 0.428 0.23 0.545 0.449 0.115 0.226 0.132 0.465 0.049 0.718zM91.125 180.126v0l8.03 0.508c0.258 0.016 0.472 0.113 0.64 0.29 0.168 0.177 0.244 0.395 0.228 0.653v0c-0.016 0.258-0.119 0.458-0.307 0.599-0.189 0.148-0.413 0.213-0.671 0.197v0l-7.264-0.46 0.222-0.365-0.361 5.704-0.203-0.262 6.271 0.397c0.258 0.016 0.472 0.113 0.64 0.29 0.168 0.177 0.244 0.395 0.228 0.653v0c-0.016 0.252-0.118 0.451-0.307 0.599-0.189 0.148-0.413 0.213-0.671 0.197v0l-6.211-0.393 0.171-0.189-0.37 5.844-0.119-0.167 7.195 0.455c0.258 0.016 0.471 0.12 0.639 0.31 0.168 0.19 0.244 0.398 0.23 0.623v0c-0.016 0.258-0.119 0.465-0.308 0.619-0.189 0.154-0.413 0.223-0.672 0.207v0l-8.03-0.508c-0.258-0.016-0.468-0.119-0.629-0.31-0.161-0.196-0.233-0.42-0.217-0.672v0l0.885-13.972c0.016-0.252 0.116-0.462 0.299-0.63 0.183-0.161 0.404-0.234 0.662-0.217zM120.928 193.724v0c-1.086 0.252-2.078 0.311-2.974 0.178-0.896-0.133-1.808-0.464-2.734-0.992v0c-0.127-0.08-0.238-0.173-0.331-0.281-0.101-0.113-0.168-0.24-0.201-0.383v0c-0.055-0.239-0.02-0.469 0.106-0.689 0.131-0.228 0.32-0.37 0.565-0.427v0c0.207-0.048 0.41-0.01 0.609 0.114v0c0.699 0.431 1.419 0.714 2.159 0.849 0.735 0.143 1.523 0.117 2.364-0.077v0c0.64-0.148 1.198-0.387 1.674-0.715 0.476-0.328 0.823-0.712 1.042-1.151 0.225-0.441 0.282-0.9 0.171-1.379v0c-0.149-0.586-0.433-1.031-0.851-1.336-0.418-0.305-0.948-0.52-1.591-0.644-0.642-0.124-1.365-0.185-2.168-0.182v0c-0.71-0.006-1.377-0.059-1.999-0.16-0.618-0.109-1.174-0.287-1.668-0.534-0.488-0.255-0.906-0.601-1.252-1.038-0.34-0.439-0.587-0.988-0.74-1.649v0c-0.193-0.834-0.143-1.619 0.15-2.354 0.299-0.737 0.797-1.367 1.494-1.89 0.697-0.523 1.553-0.901 2.568-1.137v0c0.892-0.207 1.773-0.258 2.643-0.152 0.871 0.112 1.608 0.367 2.211 0.765v0c0.355 0.211 0.564 0.449 0.625 0.714v0c0.051 0.22 0.007 0.441-0.132 0.664-0.138 0.23-0.326 0.372-0.565 0.428v0c-0.162 0.037-0.321 0.013-0.477-0.074v0c-0.317-0.22-0.692-0.398-1.126-0.536-0.432-0.131-0.89-0.209-1.373-0.234-0.489-0.023-0.96 0.018-1.413 0.123v0c-0.679 0.157-1.252 0.392-1.717 0.705-0.471 0.32-0.807 0.691-1.01 1.112-0.201 0.428-0.243 0.891-0.128 1.39v0c0.13 0.563 0.398 0.984 0.804 1.265 0.407 0.287 0.909 0.481 1.505 0.581 0.596 0.1 1.244 0.165 1.946 0.193v0c0.758 0.008 1.471 0.054 2.137 0.139 0.66 0.086 1.249 0.245 1.767 0.48 0.519 0.241 0.962 0.592 1.328 1.052 0.361 0.468 0.629 1.084 0.806 1.847v0c0.187 0.808 0.128 1.582-0.178 2.32-0.314 0.734-0.82 1.372-1.519 1.916-0.707 0.538-1.549 0.931-2.527 1.179zM158.821 172.347l5.51-4.788c0.195-0.17 0.417-0.248 0.666-0.235 0.254 0.008 0.463 0.108 0.628 0.298v0c0.17 0.195 0.239 0.417 0.208 0.664-0.026 0.243-0.137 0.449-0.333 0.619v0l-5.901 5.127c-0.195 0.17-0.417 0.244-0.664 0.221-0.252-0.027-0.461-0.136-0.627-0.326v0l-9.183-10.568c-0.165-0.19-0.239-0.412-0.221-0.665 0.022-0.248 0.136-0.461 0.341-0.64v0c0.195-0.17 0.417-0.248 0.666-0.235 0.253 0.018 0.462 0.122 0.627 0.312v0l8.883 10.222zM165.796 145.236l11.368 8.137c0.205 0.147 0.329 0.35 0.372 0.609 0.038 0.255-0.019 0.488-0.169 0.699v0c-0.166 0.232-0.37 0.363-0.613 0.394-0.248 0.027-0.474-0.033-0.679-0.18v0l-11.369-8.137c-0.216-0.155-0.345-0.357-0.386-0.607-0.036-0.246 0.025-0.48 0.184-0.701v0c0.151-0.211 0.348-0.338 0.593-0.384 0.25-0.041 0.483 0.015 0.699 0.17zM171.944 131.403l2.078-5.517c0.468-1.242 1.152-2.077 2.051-2.505 0.893-0.43 1.926-0.424 3.1 0.019v0c0.615 0.232 1.131 0.586 1.547 1.062 0.414 0.482 0.675 1.052 0.782 1.709 0.105 0.664 0.024 1.396-0.243 2.197v0l-0.61-0.187c0.185-0.491 0.447-0.97 0.787-1.439 0.339-0.468 0.749-0.867 1.227-1.197 0.477-0.324 1.018-0.528 1.625-0.612 0.615-0.088 1.298 0.01 2.049 0.294v0c0.801 0.302 1.422 0.688 1.862 1.159 0.444 0.479 0.747 1.001 0.91 1.566 0.167 0.574 0.217 1.156 0.15 1.749-0.063 0.601-0.198 1.174-0.403 1.72v0l-2.096 5.563c-0.091 0.242-0.251 0.413-0.48 0.511-0.235 0.096-0.47 0.1-0.706 0.011v0l-13.101-4.936c-0.236-0.089-0.408-0.246-0.515-0.47-0.101-0.222-0.105-0.455-0.014-0.697zM175.605 126.77v0l-1.713 4.547-0.288-0.396 5.265 1.984-0.358 0.131 1.724-4.575c0.234-0.621 0.232-1.228-0.006-1.822-0.235-0.599-0.747-1.048-1.536-1.345v0c-0.702-0.264-1.326-0.265-1.872-0.003-0.54 0.265-0.945 0.758-1.216 1.479zM181.976 128.979v0l-1.737 4.612-0.093-0.205 5.516 2.078-0.249 0.098 1.769-4.697c0.314-0.832 0.359-1.592 0.135-2.279-0.224-0.687-0.779-1.198-1.668-1.533v0c-0.696-0.262-1.283-0.324-1.76-0.185-0.478 0.139-0.873 0.405-1.185 0.799-0.305 0.396-0.548 0.833-0.728 1.312zM2.184 100.117c0-3.344 2.711-6.056 6.056-6.056 3.344 0 6.056 2.711 6.056 6.056 0 3.344-2.711 6.056-6.056 6.055-3.344 0-6.056-2.711-6.056-6.055zM182.142 100.117c0-3.344 2.711-6.056 6.055-6.056 3.344 0 6.056 2.711 6.056 6.056 0 3.344-2.711 6.056-6.056 6.055-3.344 0-6.056-2.711-6.055-6.055z" fill="#ffffff" data-fill-palette-color="accent"></path></svg></g></svg></g></svg></g></svg><rect width="395.52" height="124.51077084127502" fill="none" stroke="none" visibility="hidden"></rect></g></svg></g></svg>