<svg xmlns="http://www.w3.org/2000/svg" version="1.1" xmlns:xlink="http://www.w3.org/1999/xlink" xmlns:svgjs="http://svgjs.dev/svgjs" width="2000" height="2000" viewBox="0 0 2000 2000"><g transform="matrix(1,0,0,1,0,0)"><svg viewBox="0 0 280 280" data-background-color="#7a26c1" preserveAspectRatio="xMidYMid meet" height="2000" width="2000" xmlns="http://www.w3.org/2000/svg" xmlns:xlink="http://www.w3.org/1999/xlink"><defs></defs><g id="tight-bounds" transform="matrix(1,0,0,1,0,0)"><svg viewBox="0 0 280 280" height="280" width="280"><g><svg viewBox="0 0 280 280" height="280" width="280"><g><svg viewBox="0 0 280 280" height="280" width="280"><g><svg viewBox="0 0 280 280" height="280" width="280"><g><svg viewBox="0 0 280 280" height="280" width="280"><g transform="matrix(1,0,0,1,73.93644502310948,86.46757617407579)"><svg viewBox="0 0 132.12710995378103 107.06484765184844" height="107.06484765184844" width="132.12710995378103"><g><svg xmlns="http://www.w3.org/2000/svg" xmlns:xlink="http://www.w3.org/1999/xlink" version="1.1" x="0" y="0" viewBox="22.33100128173828 25.16900062561035 58.00199890136719 47.00000762939453" enable-background="new 0 0 100 100" xml:space="preserve" height="107.06484765184844" width="132.12710995378103" class="icon-o-0" data-fill-palette-color="accent" id="o-0"><path d="M65.083 25.169c-6.049 0-11.287 5.456-13.75 13.342-2.465-7.886-7.701-13.342-13.752-13.342-8.408 0-15.25 10.542-15.25 23.5s6.842 23.5 15.25 23.5c6.051 0 11.287-5.456 13.752-13.342 2.463 7.886 7.701 13.342 13.75 13.342 8.408 0 15.25-10.542 15.25-23.5S73.491 25.169 65.083 25.169zM37.581 69.169c-4.363 0-8.191-3.852-10.363-9.619 1.734 2.406 4.057 3.869 6.652 3.869 5.484 0 9.781-6.479 9.781-14.75s-4.297-14.75-9.781-14.75c-2.596 0-4.918 1.463-6.652 3.869 2.172-5.768 6-9.619 10.363-9.619 6.756 0 12.252 9.196 12.252 20.5S44.337 69.169 37.581 69.169zM65.083 69.169c-4.152 0-7.824-3.483-10.041-8.788 1.646 1.905 3.717 3.038 5.998 3.038 5.484 0 9.781-6.479 9.781-14.75s-4.297-14.75-9.781-14.75c-2.281 0-4.352 1.133-5.998 3.038 2.217-5.305 5.889-8.788 10.041-8.788 6.754 0 12.25 9.196 12.25 20.5S71.837 69.169 65.083 69.169z" fill="#ffffff" data-fill-palette-color="accent"></path></svg></g></svg></g><path d="M31.537 108.362l-28.227-4.454 1.565-3.919 18.736 3.237c0.938 0.139 2.457 0.467 4.558 0.984v0l0.059-0.148c-1.595-0.837-2.938-1.605-4.03-2.306v0l-16.068-9.919 1.941-4.862 18.54 3.727c1.092 0.2 2.6 0.556 4.525 1.067v0l0.063-0.157c-1.77-0.971-3.103-1.764-4.001-2.38v0l-15.799-10.594 1.358-3.401 23.529 16.22-1.793 4.492-18.511-3.586c-1.116-0.21-2.773-0.625-4.968-1.245v0l-0.063 0.158c2.064 1.11 3.551 1.95 4.459 2.519v0l15.905 10.112zM47.233 75.435l-15.016-25.103 3.357-3.807 26.786 11.757-2.877 3.262-5.69-2.576-7.142 8.099 3.268 5.323zM44.606 63.804l5.667-6.427-10.872-4.93c-0.668-0.306-1.643-0.86-2.925-1.664v0l-0.112 0.127c1.002 1.202 1.674 2.1 2.017 2.694v0zM78.014 46.559l-12.965-20.403-6.241 3.966-1.98-3.116 15.909-10.11 1.98 3.117-6.199 3.939 12.965 20.403zM113.259 31.862c-3.482 0.926-6.431 0.472-8.849-1.363-2.424-1.834-4.256-5.081-5.496-9.742v0c-1.24-4.661-1.264-8.39-0.072-11.186 1.186-2.794 3.52-4.654 7.001-5.581v0c2.879-0.766 5.428-0.514 7.647 0.757 2.214 1.278 3.77 3.604 4.668 6.976v0l-4.04 1.075c-0.583-2.193-1.526-3.734-2.826-4.624-1.301-0.89-2.804-1.108-4.51-0.654v0c-4.341 1.155-5.675 4.874-4.003 11.158v0l0.522 1.962c1.672 6.283 4.704 8.841 9.096 7.672v0c1.731-0.461 2.948-1.395 3.651-2.805 0.705-1.403 0.764-3.204 0.179-5.402v0l3.886-1.034c0.897 3.373 0.708 6.156-0.569 8.349-1.285 2.189-3.38 3.67-6.285 4.442zM140.519 27.819l1.614-27.819 4.063 0.236-0.682 11.763 10.462 0.607 0.682-11.763 4.054 0.235-1.614 27.819-4.053-0.235 0.72-12.409-10.463-0.607-0.719 12.409zM177.453 33.933l10.225-25.922 15.045 5.934-1.355 3.435-11.258-4.441-3.071 7.786 9.86 3.889-1.359 3.444-9.86-3.889-4.44 11.257zM207.673 49.577l17.328-21.823 3.188 2.531-14.976 18.862 9.033 7.172-2.352 2.962zM231.567 72.699l22.053-17.035 2.483 3.213-22.053 17.035zM242.675 90.236l16.636 2.627 9.557-12.167 1.734 4.377-6.936 8.731 0.033 0.083 11.077 1.725 1.587 4.006-15.068-2.424-10.528 13.472-1.734-4.376 7.959-10.014-0.03-0.074-12.7-1.96zM11.586 186.066l23.906-16.554 1.602 3.989-16.069 10.778c-0.786 0.552-2.132 1.375-4.038 2.47v0l0.059 0.148c1.759-0.499 3.285-0.873 4.58-1.122v0l18.796-3.99 1.989 4.95-16.27 10.279c-0.94 0.614-2.297 1.409-4.071 2.387v0l0.063 0.157c1.982-0.532 3.518-0.881 4.609-1.048v0l19.075-3.298 1.384 3.445-28.711 4.595-1.836-4.571 16.151-10.361c0.965-0.624 2.475-1.484 4.53-2.581v0l-0.06-0.148c-2.302 0.624-3.987 1.048-5.056 1.27v0l-18.815 3.73zM31.145 225.231l27.221-12.033 3.425 3.866-15.215 25.582-2.931-3.307 3.31-5.419-7.293-8.231-5.778 2.633zM43.217 224.028l5.781 6.525 6.337-10.361c0.391-0.639 1.074-1.554 2.048-2.746v0l-0.112-0.127c-1.34 0.859-2.333 1.424-2.979 1.696v0zM66.629 258.04l13.157-20.777-6.357-4.025 2.013-3.178 16.202 10.26-2.012 3.178-6.323-4.004-13.157 20.777zM107.662 276.261c-3.54-0.937-5.915-2.829-7.125-5.675-1.218-2.841-1.199-6.632 0.056-11.371v0c1.257-4.746 3.117-8.053 5.581-9.919 2.459-1.875 5.459-2.343 9-1.406v0c2.931 0.776 5.057 2.286 6.378 4.53 1.313 2.249 1.515 5.089 0.606 8.52v0l-4.118-1.09c0.593-2.238 0.537-4.075-0.167-5.511-0.703-1.442-1.92-2.392-3.652-2.851v0c-4.419-1.17-7.475 1.442-9.168 7.837v0l-0.528 1.991c-1.693 6.395-0.301 10.184 4.176 11.37v0c1.757 0.465 3.303 0.253 4.636-0.636 1.332-0.883 2.294-2.443 2.887-4.681v0l3.954 1.047c-0.91 3.438-2.483 5.801-4.718 7.089-2.242 1.287-4.841 1.539-7.798 0.756zM141.792 280l-1.67-28.305 4.133-0.243 0.706 11.961 10.64-0.627-0.706-11.962 4.123-0.243 1.67 28.304-4.123 0.243-0.745-12.627-10.64 0.628 0.745 12.627zM185.379 272.414l-10.425-26.367 15.298-6.049 1.383 3.498-11.448 4.527 3.129 7.913 10.032-3.967 1.384 3.498-10.033 3.967 4.53 11.458zM221.03 253.639l-17.636-22.202 3.241-2.575 15.247 19.193 9.188-7.298 2.389 3.008zM248.528 226.912l-22.417-17.362 2.529-3.265 22.417 17.362zM262.5 204.439l-10.479-13.572-15.569 2.345 1.776-4.456 11.23-1.621 0.03-0.074-6.99-9.02 1.621-4.068 9.461 12.309 17.199-2.617-1.772 4.447-12.89 1.859-0.03 0.074 8.038 10.317zM4.227 143.154c0-5.982 4.849-10.831 10.832-10.831 5.982 0 10.831 4.849 10.831 10.831 0 5.982-4.849 10.831-10.831 10.831-5.982 0-10.831-4.849-10.832-10.831zM255.028 143.154c0-5.982 4.849-10.831 10.831-10.831 5.982 0 10.831 4.849 10.831 10.831 0 5.982-4.849 10.831-10.831 10.831-5.982 0-10.831-4.849-10.831-10.831z" fill="#ffffff" data-fill-palette-color="primary"></path></svg></g></svg></g></svg></g></svg></g></svg><rect width="280" height="280" fill="none" stroke="none" visibility="hidden"></rect></g></svg></g></svg>